<svg id="visual" viewBox="0 0 900 600" width="900" height="600" xmlns="http://www.w3.org/2000/svg" xmlns:xlink="http://www.w3.org/1999/xlink" version="1.1">
  <rect x="0" y="0" width="900" height="600" fill="#001220"></rect>
  <path d="M0 71L21.5 73.5C43 76 86 81 128.8 84.5C171.7 88 214.3 90 257.2 86.3C300 82.7 343 73.3 385.8 74.3C428.7 75.3 471.3 86.7 514.2 87.3C557 88 600 78 642.8 76.5C685.7 75 728.3 82 771.2 85.2C814 88.3 857 87.7 878.5 87.3L900 87L900 0L878.5 0C857 0 814 0 771.2 0C728.3 0 685.7 0 642.8 0C600 0 557 0 514.2 0C471.3 0 428.7 0 385.8 0C343 0 300 0 257.2 0C214.3 0 171.7 0 128.8 0C86 0 43 0 21.5 0L0 0Z" fill="#698cfa"></path>
  <path d="M0 70L21.5 70.8C43 71.7 86 73.3 128.8 72C171.7 70.7 214.3 66.3 257.2 61.7C300 57 343 52 385.8 53C428.7 54 471.3 61 514.2 64.2C557 67.3 600 66.7 642.8 65.5C685.7 64.3 728.3 62.7 771.2 62.5C814 62.3 857 63.7 878.5 64.3L900 65L900 0L878.5 0C857 0 814 0 771.2 0C728.3 0 685.7 0 642.8 0C600 0 557 0 514.2 0C471.3 0 428.7 0 385.8 0C343 0 300 0 257.2 0C214.3 0 171.7 0 128.8 0C86 0 43 0 21.5 0L0 0Z" fill="#5a73db"></path>
  <path d="M0 56L21.5 56.2C43 56.3 86 56.7 128.8 55.8C171.7 55 214.3 53 257.2 53.7C300 54.3 343 57.7 385.8 57.2C428.7 56.7 471.3 52.3 514.2 52.5C557 52.7 600 57.3 642.8 59.3C685.7 61.3 728.3 60.7 771.2 59C814 57.3 857 54.7 878.5 53.3L900 52L900 0L878.5 0C857 0 814 0 771.2 0C728.3 0 685.7 0 642.8 0C600 0 557 0 514.2 0C471.3 0 428.7 0 385.8 0C343 0 300 0 257.2 0C214.3 0 171.7 0 128.8 0C86 0 43 0 21.5 0L0 0Z" fill="#4b5abc"></path>
  <path d="M0 28L21.5 28.8C43 29.7 86 31.3 128.8 33.2C171.7 35 214.3 37 257.2 37.5C300 38 343 37 385.8 38C428.7 39 471.3 42 514.2 43.7C557 45.3 600 45.7 642.8 45.5C685.7 45.3 728.3 44.7 771.2 44.5C814 44.3 857 44.7 878.5 44.8L900 45L900 0L878.5 0C857 0 814 0 771.2 0C728.3 0 685.7 0 642.8 0C600 0 557 0 514.2 0C471.3 0 428.7 0 385.8 0C343 0 300 0 257.2 0C214.3 0 171.7 0 128.8 0C86 0 43 0 21.5 0L0 0Z" fill="#3c439e"></path>
  <path d="M0 12L21.5 12C43 12 86 12 128.8 14.3C171.7 16.7 214.3 21.3 257.2 24C300 26.7 343 27.3 385.8 26.5C428.7 25.7 471.3 23.3 514.2 21C557 18.7 600 16.3 642.8 17.3C685.7 18.3 728.3 22.7 771.2 24.7C814 26.7 857 26.3 878.5 26.2L900 26L900 0L878.5 0C857 0 814 0 771.2 0C728.3 0 685.7 0 642.8 0C600 0 557 0 514.2 0C471.3 0 428.7 0 385.8 0C343 0 300 0 257.2 0C214.3 0 171.7 0 128.8 0C86 0 43 0 21.5 0L0 0Z" fill="#2c2c81"></path>
</svg>