<svg id="visual" viewBox="0 0 900 600" width="900" height="600" xmlns="http://www.w3.org/2000/svg" xmlns:xlink="http://www.w3.org/1999/xlink" version="1.1"><rect x="0" y="0" width="900" height="600" fill="#001220"></rect><path d="M0 149L21.5 139.2C43 129.3 86 109.7 128.8 101.3C171.7 93 214.3 96 257.2 96.2C300 96.3 343 93.7 385.8 95.8C428.7 98 471.3 105 514.2 111.8C557 118.7 600 125.3 642.8 129.2C685.7 133 728.3 134 771.2 129.7C814 125.3 857 115.7 878.5 110.8L900 106L900 0L878.5 0C857 0 814 0 771.2 0C728.3 0 685.7 0 642.8 0C600 0 557 0 514.2 0C471.3 0 428.7 0 385.8 0C343 0 300 0 257.2 0C214.3 0 171.7 0 128.8 0C86 0 43 0 21.5 0L0 0Z" fill="#2261c2"></path><path d="M0 116L21.5 110.2C43 104.3 86 92.7 128.8 91.8C171.7 91 214.3 101 257.2 106C300 111 343 111 385.8 109C428.7 107 471.3 103 514.2 104C557 105 600 111 642.8 113.8C685.7 116.7 728.3 116.3 771.2 109.3C814 102.3 857 88.7 878.5 81.8L900 75L900 0L878.5 0C857 0 814 0 771.2 0C728.3 0 685.7 0 642.8 0C600 0 557 0 514.2 0C471.3 0 428.7 0 385.8 0C343 0 300 0 257.2 0C214.3 0 171.7 0 128.8 0C86 0 43 0 21.5 0L0 0Z" fill="#5474c9"></path><path d="M0 61L21.5 64.2C43 67.3 86 73.7 128.8 78.7C171.7 83.7 214.3 87.3 257.2 89.3C300 91.3 343 91.7 385.8 91.8C428.7 92 471.3 92 514.2 89.2C557 86.3 600 80.7 642.8 74.2C685.7 67.7 728.3 60.3 771.2 59.7C814 59 857 65 878.5 68L900 71L900 0L878.5 0C857 0 814 0 771.2 0C728.3 0 685.7 0 642.8 0C600 0 557 0 514.2 0C471.3 0 428.7 0 385.8 0C343 0 300 0 257.2 0C214.3 0 171.7 0 128.8 0C86 0 43 0 21.5 0L0 0Z" fill="#7588d0"></path><path d="M0 44L21.5 46.2C43 48.3 86 52.7 128.8 51.7C171.7 50.7 214.3 44.3 257.2 42.2C300 40 343 42 385.8 45.3C428.7 48.7 471.3 53.3 514.2 55C557 56.7 600 55.3 642.8 55C685.7 54.7 728.3 55.3 771.2 54.2C814 53 857 50 878.5 48.5L900 47L900 0L878.5 0C857 0 814 0 771.2 0C728.3 0 685.7 0 642.8 0C600 0 557 0 514.2 0C471.3 0 428.7 0 385.8 0C343 0 300 0 257.2 0C214.3 0 171.7 0 128.8 0C86 0 43 0 21.5 0L0 0Z" fill="#929dd7"></path><path d="M0 39L21.5 39C43 39 86 39 128.8 35.5C171.7 32 214.3 25 257.2 22C300 19 343 20 385.8 19.5C428.7 19 471.3 17 514.2 18C557 19 600 23 642.8 23.2C685.7 23.3 728.3 19.7 771.2 18.8C814 18 857 20 878.5 21L900 22L900 0L878.5 0C857 0 814 0 771.2 0C728.3 0 685.7 0 642.8 0C600 0 557 0 514.2 0C471.3 0 428.7 0 385.8 0C343 0 300 0 257.2 0C214.3 0 171.7 0 128.8 0C86 0 43 0 21.5 0L0 0Z" fill="#acb2dd"></path></svg>